<?xml version="1.0" standalone="no"?><!-- Generator: Gravit.io -->
<svg xmlns="http://www.w3.org/2000/svg" xmlns:xlink="http://www.w3.org/1999/xlink" style="isolation:isolate"
     viewBox="0 0 100 100" width="100" height="100">
    <defs>
        <clipPath id="_clipPath_wzV1RtJO0JMLjtBEihspKmvfyfPKPYrL">
            <rect width="100" height="100"/>
        </clipPath>
    </defs>
    <g clip-path="url(#_clipPath_wzV1RtJO0JMLjtBEihspKmvfyfPKPYrL)">
        <path d="M 59.401 4.59 L 95.255 41.934 C 99.53 46.386 99.386 53.47 94.934 57.745 L 56.41 94.732 C 51.958 99.006 44.873 98.862 40.599 94.41 L 4.745 57.066 C 0.47 52.614 0.614 45.53 5.066 41.255 L 43.59 4.268 C 48.042 -0.006 55.127 0.138 59.401 4.59 Z"
              style="stroke:none;fill:#00FF84;stroke-miterlimit:10;opacity:0.56;"/>
        <path d="M 59.401 4.59 L 95.255 41.934 C 99.53 46.386 99.386 53.47 94.934 57.745 L 56.41 94.732 C 51.958 99.006 44.873 98.862 40.599 94.41 L 4.745 57.066 C 0.47 52.614 0.614 45.53 5.066 41.255 L 43.59 4.268 C 48.042 -0.006 55.127 0.138 59.401 4.59 Z"
              style="fill:none;stroke:#000000;stroke-width:1;stroke-linecap:square;stroke-miterlimit:3;"/>
        <g transform="matrix(0.986,-0.168,0.168,0.986,7.338,-6.221)">
            <text transform="matrix(1,0,0,1,0,84.5)"
                  style="font-family:&quot;Bonbon&quot;;font-weight:400;font-size:100px;font-style:normal;fill:#607d8b;stroke:none;">
                #
            </text>
        </g>
    </g>
</svg>